<svg viewBox="0 0 128 128" xmlns="http://www.w3.org/2000/svg">
    <!-- Definitions for gradients -->
    <defs>
        <!-- Gradient for background inside circle (30-degree angle) -->
        <linearGradient id="backgroundGradient" x1="0%" y1="0%" x2="60%" y2="100%">
            <stop offset="0%" stop-color="#0a3aaa" stop-opacity="1" />
            <stop offset="100%" stop-color="#aa2ca6" stop-opacity="1" />
        </linearGradient>

        <!-- Funnel gradient (30-degree angle) -->
        <linearGradient id="funnelGradient" x1="0%" y1="0%" x2="100%" y2="100%">
            <stop offset="0%" stop-color="#ff5f00" stop-opacity="1" />
            <stop offset="50%" stop-color="#ffcc00" stop-opacity="1" />
            <stop offset="100%" stop-color="#ff8000" stop-opacity="1" />
        </linearGradient>
    </defs>

    <!-- Background circle with gradient fill -->
    <circle cx="64" cy="64" r="60" fill="url(#backgroundGradient)" stroke="" stroke-width="4" />

    <!-- Simulated drop shadow for funnel (duplicated path, offset and dark color) -->
    <path
        d="M96 32H32c-1.5 0-2.3 1.8-1.2 2.9l25.2 25.2v26.7c0 0.8 0.4 1.5 1 2l12 8c1.4 0.9 3.2-0.1 3.2-1.7V60.1l25.2-25.2c1.1-1.1 0.3-2.9-1.2-2.9z"
        fill="black" fill-opacity="0.3" transform="translate(2, 2)" /> <!-- Shadow with offset -->

    <!-- Funnel shape with gradient fill -->
    <path
        d="M96 32H32c-1.5 0-2.3 1.8-1.2 2.9l25.2 25.2v26.7c0 0.8 0.4 1.5 1 2l12 8c1.4 0.9 3.2-0.1 3.2-1.7V60.1l25.2-25.2c1.1-1.1 0.3-2.9-1.2-2.9z"
        fill="url(#funnelGradient)" stroke="#1a568" stroke-width="" stroke-linejoin="round" />
</svg>